<?xml version="1.0" standalone="no"?>
<!DOCTYPE svg PUBLIC "-//W3C//DTD SVG 20010904//EN"
 "http://www.w3.org/TR/2001/REC-SVG-20010904/DTD/svg10.dtd">
<svg version="1.0" xmlns="http://www.w3.org/2000/svg"
 width="368.000000pt" height="420.000000pt" viewBox="0 0 368.000000 420.000000"
 preserveAspectRatio="xMidYMid meet">

<g transform="translate(0.000000,420.000000) scale(0.100000,-0.100000)"
fill="#000000" stroke="none">
<path d="M1851 4151 c-13 -24 -35 -9 234 -164 110 -63 286 -164 390 -224 454
-263 595 -344 837 -484 141 -81 265 -154 277 -161 l21 -13 0 -1022 0 -1023 25
0 25 0 -2 1041 -3 1041 -255 147 c-140 81 -347 200 -460 265 -113 66 -304 176
-425 246 -121 70 -311 179 -422 244 -112 64 -209 119 -217 122 -8 3 -19 -3
-25 -15z"/>
<path d="M1499 3954 c-6 -7 -9 -19 -6 -26 2 -7 94 -65 203 -128 225 -129 498
-287 879 -507 143 -83 348 -201 455 -263 107 -62 201 -117 207 -122 10 -8 13
-231 15 -1032 l3 -1021 23 -3 c13 -2 22 2 22 10 0 7 0 476 1 1041 0 566 -1
1030 -2 1031 -2 2 -106 63 -231 135 -259 149 -573 330 -905 523 -666 385 -652
377 -664 362z"/>
<path d="M1140 3739 c-7 -11 -10 -22 -8 -24 2 -1 120 -70 263 -153 252 -145
388 -223 870 -502 127 -73 316 -182 420 -242 105 -61 196 -115 203 -120 10 -9
12 -218 12 -1027 l-1 -1016 26 -3 25 -3 0 1038 -1 1038 -267 154 c-147 85
-377 218 -512 296 -135 78 -353 204 -485 280 -132 76 -304 176 -383 222 -79
46 -145 83 -147 83 -2 0 -9 -9 -15 -21z"/>
<path d="M781 3531 c-12 -21 -75 17 719 -441 212 -122 502 -290 645 -373 143
-83 290 -168 328 -189 l67 -39 0 -1024 0 -1025 25 0 25 0 -2 1041 -3 1041
-185 107 c-102 59 -320 186 -485 281 -165 95 -383 221 -485 280 -102 59 -283
164 -403 234 -120 69 -222 126 -227 126 -5 0 -14 -9 -19 -19z"/>
<path d="M432 3338 c-29 -29 -73 -1 688 -441 240 -139 454 -262 827 -478 l233
-134 0 -1022 0 -1023 30 0 30 0 0 1028 c0 565 -4 1032 -8 1038 -7 12 -108 71
-597 354 -165 95 -383 221 -485 280 -102 59 -288 167 -415 240 -126 73 -244
141 -261 151 -23 14 -33 16 -42 7z"/>
<path d="M40 2110 l0 -1050 25 0 25 0 0 1005 c0 637 4 1005 10 1005 5 0 89
-46 187 -103 98 -57 313 -182 478 -277 165 -95 383 -221 485 -280 102 -59 262
-151 355 -205 94 -54 182 -107 198 -117 l27 -19 0 -1020 0 -1019 25 0 25 0 0
1038 0 1038 -52 30 c-158 91 -560 324 -743 429 -116 67 -302 175 -415 240
-480 278 -615 355 -622 355 -4 0 -8 -472 -8 -1050z"/>
</g>
</svg>
